<svg width="18" height="18" viewBox="0 0 18 18" fill="none" xmlns="http://www.w3.org/2000/svg">
<path d="M2.25 5.625V16.875C2.25 17.4937 2.75625 18 3.375 18H13.5C14.1187 18 14.625 17.4937 14.625 16.875V5.625H2.25ZM5.625 15.75H4.5V7.875H5.625V15.75ZM7.875 15.75H6.75V7.875H7.875V15.75ZM10.125 15.75H9V7.875H10.125V15.75ZM12.375 15.75H11.25V7.875H12.375V15.75ZM14.9062 2.25H11.25V0.84375C11.2491 0.620247 11.1599 0.406152 11.0019 0.24811C10.8438 0.0900689 10.6298 0.00088869 10.4062 0L6.46875 0C6.24525 0.00088869 6.03115 0.0900689 5.87311 0.24811C5.71507 0.406152 5.62589 0.620247 5.625 0.84375V2.25H1.96875C1.74497 2.25 1.53036 2.33889 1.37213 2.49713C1.21389 2.65536 1.125 2.86997 1.125 3.09375V4.5H15.75V3.09375C15.75 2.86997 15.6611 2.65536 15.5029 2.49713C15.3446 2.33889 15.13 2.25 14.9062 2.25ZM10.125 2.25H6.75V1.13963H10.125V2.25Z" fill="#FF383C"/>
</svg>
