<svg width="40" height="40" viewBox="0 0 40 40" fill="none" xmlns="http://www.w3.org/2000/svg">
<path d="M30.2334 36.0332C28.7667 36.4666 27.0334 36.6666 25.0001 36.6666H15.0001C12.9667 36.6666 11.2334 36.4666 9.76672 36.0332C10.1334 31.6999 14.5834 28.2832 20.0001 28.2832C25.4167 28.2832 29.8667 31.6999 30.2334 36.0332Z" stroke="#292D32" stroke-width="1.5" stroke-linecap="round" stroke-linejoin="round"/>
<path d="M25 3.33325H15C6.66671 3.33325 3.33337 6.66659 3.33337 14.9999V24.9999C3.33337 31.2999 5.23338 34.7499 9.76671 36.0332C10.1334 31.6999 14.5834 28.2832 20 28.2832C25.4167 28.2832 29.8667 31.6999 30.2334 36.0332C34.7667 34.7499 36.6667 31.2999 36.6667 24.9999V14.9999C36.6667 6.66659 33.3334 3.33325 25 3.33325ZM20 23.6166C16.7 23.6166 14.0334 20.9333 14.0334 17.6333C14.0334 14.3333 16.7 11.6666 20 11.6666C23.3 11.6666 25.9667 14.3333 25.9667 17.6333C25.9667 20.9333 23.3 23.6166 20 23.6166Z" stroke="#292D32" stroke-width="1.5" stroke-linecap="round" stroke-linejoin="round"/>
<path d="M25.9667 17.6334C25.9667 20.9334 23.3 23.6167 20 23.6167C16.7 23.6167 14.0333 20.9334 14.0333 17.6334C14.0333 14.3334 16.7 11.6667 20 11.6667C23.3 11.6667 25.9667 14.3334 25.9667 17.6334Z" stroke="#292D32" stroke-width="1.5" stroke-linecap="round" stroke-linejoin="round"/>
</svg>
